<?xml version="1.0" encoding="utf-8"?>
<!-- Generator: Adobe Illustrator 16.0.3, SVG Export Plug-In . SVG Version: 6.00 Build 0)  -->
<!DOCTYPE svg PUBLIC "-//W3C//DTD SVG 1.1//EN" "http://www.w3.org/Graphics/SVG/1.1/DTD/svg11.dtd">
<svg version="1.1" id="Layer_1" xmlns="http://www.w3.org/2000/svg" xmlns:xlink="http://www.w3.org/1999/xlink" x="0px" y="0px"
	 width="841.89px" height="595.276px" viewBox="0 0 841.89 595.276" enable-background="new 0 0 841.89 595.276"
	 xml:space="preserve">
<g>
	<defs>
		<rect id="SVGID_1_" width="841.89" height="595.276"/>
	</defs>
	<clipPath id="SVGID_2_">
		<use xlink:href="#SVGID_1_"  overflow="visible"/>
	</clipPath>
	<path clip-path="url(#SVGID_2_)" fill="#6D9BC3" d="M209.512,361.6c-0.562-0.561-0.841-1.271-0.841-2.128v-71.379
		c0-0.857,0.279-1.567,0.841-2.129c0.56-0.56,1.27-0.842,2.128-0.842h47.62c0.792,0,1.484,0.282,2.078,0.842
		c0.594,0.562,0.891,1.272,0.891,2.129c0,0.792-0.297,1.485-0.891,2.079c-0.594,0.594-1.286,0.891-2.078,0.891h-44.649v29.7h32.769
		c0.857,0,1.567,0.28,2.128,0.842c0.56,0.561,0.841,1.271,0.841,2.128c0,0.858-0.281,1.584-0.841,2.178
		c-0.561,0.594-1.271,0.892-2.128,0.892h-32.769v29.699h44.649c0.792,0,1.484,0.298,2.078,0.892
		c0.594,0.594,0.891,1.287,0.891,2.079c0,0.857-0.297,1.567-0.891,2.128c-0.594,0.562-1.286,0.842-2.078,0.842h-47.62
		C210.782,362.442,210.072,362.162,209.512,361.6"/>
	<path clip-path="url(#SVGID_2_)" fill="#6D9BC3" d="M319.846,310.961c0,0.463-0.066,0.826-0.198,1.09l-22.275,48.41
		c-0.66,1.386-1.717,2.08-3.168,2.08c-0.594,0-1.138-0.183-1.633-0.545c-0.496-0.361-0.876-0.874-1.139-1.535l-22.572-48.313
		c-0.133-0.262-0.198-0.626-0.198-1.088c0-1.188,0.56-2.045,1.683-2.575c0.396-0.197,0.792-0.296,1.188-0.296
		c1.122,0,1.946,0.562,2.475,1.683l20.295,43.956l19.998-44.055c0.527-1.122,1.386-1.683,2.574-1.683
		c0.461,0,0.891,0.099,1.287,0.297C319.284,308.917,319.846,309.774,319.846,310.961"/>
	<path clip-path="url(#SVGID_2_)" fill="#6D9BC3" d="M366.573,311.307c4.223,2.412,7.539,5.728,9.949,9.951
		c2.409,4.223,3.614,8.943,3.614,14.157v24.057c0,0.858-0.264,1.568-0.792,2.127c-0.529,0.563-1.255,0.842-2.178,0.842
		c-0.859,0-1.569-0.279-2.128-0.842c-0.562-0.559-0.842-1.269-0.842-2.127v-7.722c-2.178,3.499-5.165,6.253-8.96,8.266
		c-3.796,2.015-8.036,3.02-12.721,3.02c-5.215,0-9.934-1.203-14.157-3.613c-4.225-2.409-7.541-5.725-9.95-9.95
		c-2.41-4.222-3.613-8.91-3.613-14.057c0-5.214,1.203-9.935,3.613-14.157c2.409-4.224,5.725-7.539,9.95-9.951
		c4.223-2.408,8.942-3.612,14.157-3.612C357.664,307.695,362.349,308.899,366.573,311.307 M363.604,354.621
		c3.299-1.913,5.89-4.555,7.771-7.92s2.822-7.128,2.822-11.285c0-4.158-0.941-7.921-2.822-11.287
		c-1.881-3.365-4.472-6.022-7.771-7.969c-3.301-1.946-6.997-2.921-11.088-2.921c-4.093,0-7.789,0.975-11.088,2.921
		c-3.301,1.946-5.908,4.604-7.822,7.969c-1.915,3.366-2.87,7.129-2.87,11.287c0,4.157,0.955,7.92,2.87,11.285
		c1.914,3.365,4.521,6.007,7.822,7.92c3.299,1.915,6.995,2.872,11.088,2.872C356.606,357.493,360.302,356.536,363.604,354.621"/>
	<path clip-path="url(#SVGID_2_)" fill="#6D9BC3" d="M396.618,357.888c-2.41-3.035-3.613-6.963-3.613-11.781v-58.014
		c0-0.924,0.28-1.649,0.842-2.178c0.559-0.528,1.27-0.793,2.128-0.793c0.923,0,1.649,0.265,2.178,0.793
		c0.528,0.529,0.792,1.254,0.792,2.178v58.014c0,3.037,0.643,5.529,1.931,7.474c1.286,1.948,2.952,2.922,4.999,2.922h2.475
		c0.725,0,1.32,0.264,1.782,0.792c0.461,0.529,0.693,1.254,0.693,2.178c0,0.857-0.265,1.567-0.792,2.128
		c-0.529,0.561-1.254,0.842-2.178,0.842h-1.98C402.113,362.442,399.027,360.924,396.618,357.888"/>
	<path clip-path="url(#SVGID_2_)" fill="#E9AF1C" d="M460.733,311.307c3.994,2.411,7.13,5.728,9.408,9.951s3.417,8.91,3.417,14.058
		c0,5.215-1.139,9.935-3.417,14.155c-2.278,4.227-5.414,7.541-9.408,9.951s-8.457,3.613-13.386,3.613
		c-4.807,0-9.19-1.17-13.153-3.514c-3.964-2.344-7.1-5.595-9.408-9.752c-2.309-4.158-3.496-8.777-3.558-13.86v-0.198v-47.619
		c0-0.923,0.266-1.649,0.796-2.178c0.529-0.528,1.202-0.792,2.013-0.792c0.873,0,1.56,0.264,2.061,0.792
		c0.498,0.529,0.748,1.255,0.748,2.178v30.888c2.06-3.498,4.882-6.252,8.473-8.267c3.587-2.013,7.597-3.02,12.029-3.02
		C452.276,307.695,456.739,308.9,460.733,311.307 M457.831,354.572c3.121-1.946,5.585-4.604,7.396-7.97
		c1.809-3.366,2.714-7.129,2.714-11.286s-0.905-7.92-2.714-11.286c-1.812-3.366-4.275-6.005-7.396-7.92
		c-3.121-1.913-6.615-2.871-10.483-2.871c-3.87,0-7.365,0.958-10.485,2.871c-3.122,1.915-5.57,4.554-7.349,7.92
		s-2.668,7.129-2.668,11.286s0.89,7.92,2.668,11.286c1.778,3.365,4.227,6.023,7.349,7.97c3.12,1.947,6.615,2.921,10.485,2.921
		C451.216,357.493,454.71,356.519,457.831,354.572"/>
	<path clip-path="url(#SVGID_2_)" fill="#E9AF1C" d="M497.617,359.422c-3.995-2.409-7.131-5.725-9.408-9.95
		c-2.279-4.222-3.417-8.91-3.417-14.057c0-5.214,1.138-9.935,3.417-14.157c2.277-4.224,5.413-7.539,9.408-9.951
		c3.993-2.408,8.456-3.612,13.387-3.612c4.867,0,9.297,1.204,13.292,3.612c3.994,2.412,7.13,5.728,9.409,9.951
		c2.277,4.223,3.417,8.943,3.417,14.157c0,5.146-1.14,9.835-3.417,14.057c-2.279,4.226-5.415,7.541-9.409,9.95
		c-3.995,2.41-8.425,3.613-13.292,3.613C506.073,363.036,501.61,361.833,497.617,359.422 M521.488,354.621
		c3.12-1.913,5.57-4.555,7.349-7.92c1.779-3.365,2.668-7.128,2.668-11.285c0-4.158-0.889-7.921-2.668-11.287
		c-1.778-3.365-4.229-6.022-7.349-7.969c-3.122-1.946-6.616-2.921-10.484-2.921c-3.869,0-7.365,0.975-10.485,2.921
		c-3.121,1.946-5.585,4.604-7.395,7.969c-1.812,3.366-2.716,7.129-2.716,11.287c0,4.157,0.904,7.92,2.716,11.285
		c1.81,3.365,4.273,6.007,7.395,7.92c3.12,1.915,6.616,2.872,10.485,2.872C514.872,357.493,518.366,356.536,521.488,354.621"/>
	<path clip-path="url(#SVGID_2_)" fill="#E9AF1C" d="M561.179,359.422c-3.994-2.409-7.131-5.725-9.407-9.95
		c-2.279-4.222-3.417-8.91-3.417-14.057c0-5.214,1.138-9.935,3.417-14.157c2.276-4.224,5.413-7.539,9.407-9.951
		c3.994-2.408,8.456-3.612,13.387-3.612c4.868,0,9.298,1.204,13.293,3.612c3.994,2.412,7.129,5.728,9.408,9.951
		c2.278,4.223,3.417,8.943,3.417,14.157c0,5.146-1.139,9.835-3.417,14.057c-2.279,4.226-5.414,7.541-9.408,9.95
		c-3.995,2.41-8.425,3.613-13.293,3.613C569.635,363.036,565.173,361.833,561.179,359.422 M585.051,354.621
		c3.119-1.913,5.569-4.555,7.349-7.92c1.778-3.365,2.667-7.128,2.667-11.285c0-4.158-0.889-7.921-2.667-11.287
		c-1.779-3.365-4.229-6.022-7.349-7.969c-3.122-1.946-6.616-2.921-10.485-2.921c-3.87,0-7.364,0.975-10.484,2.921
		c-3.121,1.946-5.586,4.604-7.396,7.969c-1.811,3.366-2.715,7.129-2.715,11.287c0,4.157,0.904,7.92,2.715,11.285
		c1.81,3.365,4.274,6.007,7.396,7.92c3.12,1.915,6.614,2.872,10.484,2.872C578.435,357.493,581.929,356.536,585.051,354.621"/>
	<path clip-path="url(#SVGID_2_)" fill="#E9AF1C" d="M654.042,359.868c0,0.728-0.344,1.42-1.029,2.079
		c-0.625,0.526-1.187,0.792-1.686,0.792c-0.749,0-1.404-0.396-1.966-1.188l-20.314-26.235l-8.706,8.415v15.74
		c0,0.859-0.249,1.569-0.748,2.128c-0.5,0.563-1.187,0.843-2.061,0.843c-0.811,0-1.482-0.28-2.012-0.843
		c-0.531-0.559-0.797-1.269-0.797-2.128v-71.379c0-0.923,0.266-1.649,0.797-2.178c0.529-0.527,1.201-0.792,2.012-0.792
		c0.874,0,1.561,0.265,2.061,0.792c0.499,0.529,0.748,1.255,0.748,2.178v48.411l29.021-27.917c0.623-0.529,1.217-0.792,1.778-0.792
		c0.623,0,1.216,0.331,1.779,0.989c0.562,0.595,0.842,1.223,0.842,1.882c0,0.66-0.313,1.286-0.936,1.88l-19.847,19.107
		l20.408,26.434C653.823,358.616,654.042,359.209,654.042,359.868"/>
</g>
</svg>
